PathFileType	4	(X/Y/Z)	I12_1_OpenSim.trc																																																																																																																						
DataRate	CameraRate	NumFrames	NumMarkers	Units	OrigDataRate	OrigDataStartFrame	OrigNumFrames																																																																																																																		
100	100	4	40	mm	100	1501	3000																																																																																																																		
Frame#	Time	R.ASIS			R.PSIS			S2			L.PSIS			L.ASIS			R.TH1			R.TH2			R.TH3			R.MKnee			R.Knee			R.SH1			R.SH2			R.SH3			R.SH4			R.Ankle			R.MAnkle			R.Heel			R.MT5			R.MT1			L.TH1			L.TH2			L.TH3			L.TH4			L.MKnee			L.Knee			L.SH1			L.SH2			L.SH3			L.Ankle			L.MAnkle			L.Heel			L.MT5			L.MT1			R.Acr			L.Acr			C7			T10			Clav			Sternum			R.Back		
		X1	Y1	Z1	X2	Y2	Z2	X3	Y3	Z3	X4	Y4	Z4	X5	Y5	Z5	X6	Y6	Z6	X7	Y7	Z7	X8	Y8	Z8	X9	Y9	Z9	X10	Y10	Z10	X11	Y11	Z11	X12	Y12	Z12	X13	Y13	Z13	X14	Y14	Z14	X15	Y15	Z15	X16	Y16	Z16	X17	Y17	Z17	X18	Y18	Z18	X19	Y19	Z19	X20	Y20	Z20	X21	Y21	Z21	X22	Y22	Z22	X23	Y23	Z23	X24	Y24	Z24	X25	Y25	Z25	X26	Y26	Z26	X27	Y27	Z27	X28	Y28	Z28	X29	Y29	Z29	X30	Y30	Z30	X31	Y31	Z31	X32	Y32	Z32	X33	Y33	Z33	X34	Y34	Z34	X35	Y35	Z35	X36	Y36	Z36	X37	Y37	Z37	X38	Y38	Z38	X39	Y39	Z39	X40	Y40	Z40
1501	15	881.2221	1071.7454	-378.3586	655.6129	1060.477	-476.6419	637.6705	1059.2249	-521.8603	656.061	1063.4264	-573.0946	866.4865	1076.5355	-670.7236	854.4857	726.7717	-369.0076	772.7634	728.1873	-358.4999	770.0535	619.3881	-377.2203	785.9881	502.9359	-510.0733	791.8859	501.676	-393.4693	778.7291	333.1141	-398.6819	764.3214	224.1542	-423.7515	698.2374	341.5356	-383.5438	687.9098	229.7325	-400.2744	681.3268	75.5254	-420.6404	719.6993	93.7927	-513.3685	622.5712	34.6999	-479.1196	794.1018	39.2059	-386.8102	845.1719	39.6989	-474.0387	948.9058	813.5696	-699.344	989.8443	712.5682	-696.7051	873.9686	778.8966	-713.7251	918.4008	678.7952	-704.2659	1026.8981	553.0349	-579.9717	1015.6625	564.2463	-695.4756	977.7834	433.3016	-711.8966	903.1478	464.8136	-702.7394	863.4315	362.7056	-697.9725	837.8081	154.4479	-706.1891	877.7481	154.7419	-611.3744	768.7236	139.2589	-644.9705	921.4454	71.1128	-728.5649	970.5224	72.6927	-632.2188	855.644	1480.6041	-379.3735	799.7743	1461.8591	-688.2765	776.7405	1506.215	-530.991	733.0435	1181.6668	-513.2587	915.2943	1412.3873	-544.986	941.9034	1268.4921	-531.9119	707.4951	1412.7449	-431.2173
1502	15.01	880.1765	1070.2605	-378.035	654.918	1060.0477	-477.0906	637.1097	1058.9194	-522.3523	655.8538	1062.9481	-573.4402	866.6171	1075.6464	-670.427	849.4245	725.2468	-369.2756	767.8516	728.0486	-358.1623	763.2563	619.4003	-376.9202	777.1556	502.5417	-509.8047	782.8439	501.305	-393.3193	768.3264	332.918	-398.4085	753.3328	223.9474	-423.4762	687.858	341.8496	-383.3681	676.8403	230.0943	-400.2019	669.4989	75.633	-420.7138	707.9426	93.7394	-513.4094	610.7127	34.9145	-479.2345	782.1251	39.1038	-386.7155	833.1755	39.6626	-473.9723	948.8386	813.581	-699.78	990.0819	712.6823	-696.8215	874.0065	778.5657	-714.0293	918.7664	678.6412	-704.2595	1028.6679	553.5983	-580.3608	1017.2717	564.5525	-695.4867	985.7718	432.2534	-712.5317	909.5315	459.3237	-703.1669	875.7732	355.0971	-698.6879	862.4298	145.3517	-707.7623	902.6274	147.3137	-613.0424	794.6593	125.3276	-646.4268	951.0106	67.7421	-731.03	1000.3306	71.481	-634.9939	856.1641	1479.9589	-379.9246	798.7841	1460.3807	-688.6053	776.5912	1505.1521	-531.209	732.7698	1180.7502	-513.1971	915.1289	1411.273	-545.5839	941.6226	1267.3416	-532.1336	707.707	1412.0067	-430.8938
1503	15.02	879.2745	1068.6072	-377.8673	654.3598	1059.4442	-477.5428	636.6686	1058.4315	-522.8329	655.7576	1062.2633	-573.782	866.7607	1074.5085	-670.2358	844.5436	723.6227	-369.6657	763.15	727.8015	-357.8713	756.6509	619.3446	-376.6755	768.3306	502.1408	-509.62	773.8901	500.929	-393.2519	757.9818	332.7276	-398.1905	742.3794	223.7451	-423.2429	677.5354	342.1929	-383.2197	665.8229	230.485	-400.1356	657.6793	75.7576	-420.7839	696.1962	93.6898	-513.4534	598.8809	35.1356	-479.3567	770.1337	39.0004	-386.6325	821.1691	39.6382	-473.9043	948.4294	812.9648	-700.2659	989.7851	712.0772	-696.9293	873.6263	777.7163	-714.2385	918.5282	677.8957	-704.101	1029.8185	553.5148	-580.6824	1018.182	564.1993	-695.4313	993.4199	430.9223	-713.1601	915.7342	453.4385	-703.9738	888.1102	347.4066	-699.7969	887.3143	136.9211	-709.5674	927.3779	140.5829	-614.8397	820.9946	112.1508	-648.3593	980.5461	65.3583	-733.3829	1029.7118	71.305	-637.5296	856.6743	1479.1139	-380.5146	797.9004	1458.7322	-688.9986	776.4889	1503.8959	-531.5027	732.5528	1179.6327	-513.2451	915.0208	1409.9703	-546.2143	941.3961	1266.0066	-532.3997	707.9395	1411.052	-430.686
1504	15.03	878.5104	1066.8063	-377.8475	653.9238	1058.6242	-478.0052	636.3316	1057.7209	-523.3135	655.7213	1061.3732	-574.1488	866.9156	1073.1512	-670.1454	839.8331	721.9446	-370.114	758.6447	727.4557	-357.6165	750.2497	619.2184	-376.485	759.5651	501.7339	-509.5076	765.0513	500.5442	-393.2565	747.7107	332.5376	-398.0173	731.4619	223.5664	-423.0517	667.2822	342.5756	-383.1165	654.8681	230.9112	-400.0916	645.8696	75.9066	-420.8519	684.4677	93.6454	-513.5007	587.0682	35.3741	-479.4799	758.1324	38.888	-386.557	809.1635	39.6161	-473.8241	947.7248	811.7332	-700.7976	989.0297	710.7891	-697.0194	872.9023	776.3677	-714.4058	917.7682	676.5814	-703.8409	1030.3135	552.789	-580.8906	1018.4772	563.2242	-695.2764	1000.7362	429.3871	-713.7518	921.7919	447.2882	-705.1475	900.3809	339.8025	-701.3057	912.2753	129.3125	-711.6033	951.7521	134.6538	-616.746	847.4835	99.9197	-650.8027	1009.8406	64.0306	-735.5465	1058.3933	72.1879	-639.7128	857.1873	1478.0742	-381.154	797.1243	1456.9238	-689.4579	776.4414	1502.4582	-531.8766	732.3772	1178.3291	-513.3899	914.9751	1408.4913	-546.8848	941.2344	1264.4982	-532.7219	708.1992	1409.8982	-430.5929
